<?xml version="1.0" encoding="UTF-8"?>
<svg id="Ebene_1" xmlns="http://www.w3.org/2000/svg" version="1.1" viewBox="0 0 510.25 122.16">
  <!-- Generator: Adobe Illustrator 30.0.0, SVG Export Plug-In . SVG Version: 2.1.1 Build 123)  -->
  <defs>
    <style>
      .st0 {
        fill: #3edc81;
      }

      .st1 {
        fill: #e6ebff;
      }
    </style>
  </defs>
  <g>
    <path class="st1" d="M175.16,97.1l8.57-1.53V16.04l-8.69-1.79v-1.92h21.22v35.67c5.5-6.14,11.51-10.74,19.95-10.74,11.89,0,17.52,6.27,17.52,20.84v37.46l8.57,1.53v2.05h-28.9v-2.05l7.93-1.53v-40.02c0-6.27-1.79-12.15-10.23-12.15-6.39,0-11.12,3.84-14.83,7.54v44.62l8.06,1.53v2.05h-29.15v-2.05Z"/>
    <path class="st1" d="M235.16,113.09c0-4.09,3.07-6.39,6.65-6.39s6.14,2.05,6.14,5.75c0,2.3-1.41,4.73-4.22,6.26,1.02.51,2.3.9,4.09.9,8.06,0,11.12-11.25,14.07-19.95l-23.53-56.9-7.03-1.79v-2.05h29.15v2.05l-8.95,1.79,16.49,40.66,13.94-40.66-8.18-1.79v-2.05h18.41v2.05c-4.22,1.02-6.9,3.45-9.33,10.36l-17.26,48.08c-4.86,13.43-8.57,22.76-19.05,22.76-6.65,0-11.38-3.84-11.38-9.08Z"/>
    <path class="st1" d="M284.74,120.12l8.57-1.53V38.93h9.73v7.16c2.69-2.68,9.21-8.82,16.75-8.82,16.11,0,24.55,12.53,24.55,31.45s-12.79,31.71-29.02,31.71c-4.99,0-9.85-2.05-12.15-2.81v20.97l9.46,1.53v2.05h-27.89v-2.05ZM331.55,73.19c0-16.24-4.6-30.17-16.49-30.17-4.48,0-8.82,3.32-11.89,6.14v41.43c2.56,2.56,7.42,6.39,14.32,6.39,9.59,0,14.07-10.48,14.07-23.78Z"/>
    <path class="st1" d="M343.59,97.1l8.57-1.53V16.04l-8.69-1.79v-1.92h21.22v35.67c5.5-6.14,11.51-10.74,19.95-10.74,11.89,0,17.52,6.27,17.52,20.84v37.46l8.57,1.53v2.05h-28.9v-2.05l7.93-1.53v-40.02c0-6.27-1.79-12.15-10.23-12.15-6.39,0-11.12,3.84-14.83,7.54v44.62l8.06,1.53v2.05h-29.15v-2.05Z"/>
    <path class="st1" d="M408.38,68.98c0-19.18,11.89-31.71,28.77-31.71s28.64,12.4,28.64,31.58-11.76,31.84-28.77,31.84-28.64-12.79-28.64-31.71ZM452.36,69.1c0-15.6-3.96-29.02-15.34-29.02s-15.22,13.43-15.22,28.9,3.96,28.9,15.22,28.9,15.34-13.42,15.34-28.77Z"/>
    <path class="st1" d="M464.35,97.1l8.69-1.53v-52.81l-8.69-1.79v-2.05h20.58v9.72c5.75-7.42,11.89-11.25,17.39-11.25s7.93,3.45,7.93,7.8c0,3.96-2.56,6.9-6.78,6.9-3.96,0-7.03-2.56-7.03-6.65,0-.77.26-1.66.51-2.17-3.07,1.02-8.69,4.09-11.51,7.8v44.5l9.72,1.53v2.05h-30.81v-2.05Z"/>
  </g>
  <path class="st0" d="M63.78,121.39c-14.07,1.72-26.84-.32-38.01-8.68-3.18-2.38-6.04-4.81-8.72-7.71C6.72,93.79.52,80.18.02,65.06c-.31-9.29,2.87-18.5,7.74-26.4,3.18-5.15,6.79-9.88,10.86-14.39,6.06-6.72,13.27-12,21.44-16.15C51.27,2.42,63.86-.48,76.55.07c15.04.65,27.81,5.04,39.56,14.04,9.59,7.35,16.96,15.14,19.76,26.98,1.27,5.37,1.76,10.66,1.6,16.21-.19,6.88-1.97,13.36-4.74,19.65-5.71,12.97-14.99,23.73-26.97,31.73-6.09,4.07-12.77,6.95-20,8.71-7.28,1.77-14.41,3.07-21.99,3.99ZM70.87,22.27c1.35-1.14,2.27-2.7,2.97-4.28,1.38-3.1,2.52-6.21,3.35-9.49.38-1.48.35-3.28-.7-4.43-.98-1.07-2.64-1.56-4.11-1.65-2.81-.17-5.51-.14-8.33.03-1.62.1-3.31.54-4.63,1.39-1.57,1.01-1.91,2.97-1.33,4.61.64,1.81,1.64,3.31,2.79,4.85,2.04,2.73,3.87,5.45,5.67,8.3.92,1.46,2.87,1.89,4.32.67ZM104.07,13.53c1.24-1.09,1.37-2.88.04-3.95-3.91-3.14-12.41-5.72-17.69-6.17-2.83-.24-5.04,1.05-6.21,3.38-.95,1.9-1.81,3.81-2.06,5.9-.3,2.54.91,4.65,3.41,5.55,1.76.63,3.7.77,5.68.69,5.56-.22,12.71-1.81,16.81-5.39ZM60.74,35.89c4.32-3.24,7.04-8.3,4.16-13.13-2.37-3.98-5.03-7.81-8.41-11.03-5.05-4.79-11.31-4-17.33-1.1-4.42,2.13-8.42,4.82-11.44,8.58-2.07,2.58-3.06,5.52-2.83,8.81.43,6.32,3.75,14.72,9.91,17.15,2.35.92,5.03,1.21,7.52.66,6.86-1.51,12.89-5.79,18.43-9.94ZM100.64,37.2c2.56-1.78,4.77-3.69,7.11-5.69l5.52-4.71,3.28-3.06c1.86-2.23,1.4-5.21-.81-6.96-3.07-2.42-5.88-3.82-9.6-1.65-5.03,2.94-10.58,4.67-16.52,4.74l-7.39.09c-2.25.03-4.59.28-6.61,1.27-3.16,1.55-4.75,5.06-4.32,8.46.56,4.5,4.47,10.72,8.69,12.4,5.96,2.37,15.28-1.14,20.65-4.88ZM100.44,59.31c8.5,3.76,18.16,4.13,26.88,1.15,1.65-.56,3.24-1.27,4.41-2.44,2.08-2.09,2.94-4.93,2.84-7.87-.2-6.05-1.62-11.97-4.44-17.33-1.3-2.47-3.35-4.43-5.77-5.68-5.83-3.03-10.68,1.6-15.35,5.37-2.71,2.18-5.44,4.15-7.66,6.81-3.45,4.14-7.95,10.87-5.45,15.73.94,1.83,2.44,3.34,4.55,4.28ZM25.1,40.78c.25-1.17.2-2.5-.11-3.69l-2.28-8.66c-.19-.71-1.03-1.4-1.57-1.59-1.8-.63-3.74,1.64-5.12,3.5-1.72,2.31-3.47,4.61-4.54,7.23-.79,1.91-.02,3.91,1.87,4.72,4.06,1.72,10.86,2.79,11.76-1.5ZM52.81,49.63c4.1-.34,8.04-.78,12.02-1.67,4.62-1.04,11.43-3.91,8.87-8.39l-3.21-5.61c-.67-1.17-2.07-1.62-3.32-1.07-1.1.48-1.97,1.26-2.86,2.05l-1.82,1.6-9.87,7.19c-1.04.76-2,1.52-2.86,2.46-.76.83-.69,2.25.34,2.85.69.4,1.84.67,2.7.6ZM94.88,45c.1-.55-.08-1.31-.39-1.61-.33-.32-1.36-.48-1.84-.35-3.18.86-6.11,1.48-9.37,1.88-.42.05-.98.42-1.15.7s-.11,1.15.15,1.37l5.05,4.36c2.45,2.11,6.75-1.87,7.55-6.34ZM13.77,60.68c3.97-1.87,6.64-5.09,7.72-9.14.71-2.67,1.04-5.63-1.67-6.12-2.5-.45-5.08-.56-7.62-.35-2.3.19-4.05,1.43-5.37,3.16-2.19,2.88-3.5,6.24-3.3,9.81.15,2.61,2.14,4.5,4.91,4.29,1.87-.15,3.56-.82,5.33-1.66ZM30.23,63.25c2.36.65,4.44-.39,5.56-2.34,1.37-2.37,2.37-5.04,2.63-7.76.47-4.99-5.48-7.43-10.38-7-1.88.16-3.58,1.37-4.06,3.16l-1.56,5.76c-1.13,4.16,3.68,7.06,7.81,8.19ZM85.73,53.61c.05-.62-.29-1.39-.78-1.84l-4.33-3.97c-.68-.62-1.57-1.05-2.46-.82-.66.17-1.56.91-1.8,1.71l-2.12,7.15c-.19.62.14,1.64.54,2.08.35.39,1.37.74,2.05.59,2.91-.66,8.69-2.62,8.89-4.89ZM42.13,67.48c4.22,1.19,8.32,2.01,12.6,2.49,5.29.59,8.63-1.46,11.92-5.15,3.3-3.7,7.29-10.43,4.26-14.37-.7-.91-2.24-1.1-3.41-.88-4.86.93-9.6,1.33-14.52,1.81l-6.31.62c-6.59.64-10.11,10.2-8.13,13.05.77,1.11,2.11,2.01,3.6,2.43ZM92.85,92.42c2.59-1.45,4.73-3.29,6.81-5.32l4.52-4.42c2.59-2.54,4.76-5.26,6.01-8.6,2.42-6.44-3.14-10.64-9.22-12.7-2.96-1-5.75-2.09-8.56-3.44-2.58-1.24-5.34-1.25-8.07-.26-3.88,1.41-7.62,2.94-11.34,4.69-2.45,1.16-4.25,2.94-6,4.87l-3.83,4.23c-.69.76-.77,2.04-.33,2.95.3.62,1.25,1.38,2.21,1.6,5.65,1.31,10.58,4.18,14.22,8.63l3.73,4.99c2.63,3.53,5.73,5.07,9.85,2.77ZM18.38,94.21c4.72-5.71,9.71-7.04,12.67-10.01,3.72-3.72,3.63-11.79.3-16.45-1.96-2.75-4.97-4.64-8.23-5.59-4.22-1.23-8.45-.43-12.03,1.91-2.7,1.77-4.86,4.07-5.79,7.14-.81,2.67-.86,5.42-.2,8.18,1.17,4.96,3.27,9.59,6.19,13.8.65.93,1.62,1.78,2.57,2.3,1.63.89,3.36.11,4.52-1.28ZM128.28,80.42c2.03-4.46,3.58-8.99,4.83-13.73.3-1.13.18-2.51-.61-3.34-1.93-2.02-7.38-.31-10.59.66-3.51,1.06-6.44,3.18-8.07,6.42-1.35,2.71-2.45,5.45-3.17,8.42-1.12,4.62-.08,12.33,3.71,14.09,5.24,2.44,11.72-7.75,13.9-12.53ZM53.58,76c.65-.32,1.4-.77,1.91-1.24.73-.66.59-1.76-.27-2.28-.7-.42-1.67-.65-2.55-.81l-10.35-1.9c-2.7-.5-5.59-.03-6.21,2.35-.64,2.43-.4,5.02.78,7.21.98,1.82,2.78,2.68,4.89,2.2,1.53-.35,2.95-1.09,4.38-1.8l7.43-3.72ZM81.21,116.43l3.78-1.44c3.69-1.81,5.21-5.5,4.11-9.34-.58-2.01-1.51-3.82-2.43-5.76-2.41-5.13-5.31-9.95-8.98-14.27-4.59-5.41-10.97-8.3-18.16-8.21-4.3.06-8.05,1-11.74,3.07-4.28,2.4-7.05,6.21-7.37,11.17-.24,3.7.24,7.36,1.18,11.01,1.75,6.83,6.06,12.81,13.02,15.22,4.03,1.39,8.19,1.77,12.49,1.29,4.8-.54,9.37-1.46,14.1-2.72ZM93.41,107.72c1.55,1.27,3.51,1.62,5.48,1.18,3.57-.81,6.74-2.68,9.12-5.36,1.55-1.74,2.43-3.75,2.64-6.08.37-4.13-1.31-10.99-4.79-11.65-1.13-.21-2.33.13-3.17.85l-5.49,4.75-3.63,3.81c-3.15,3.31-4.38,9.03-.17,12.5ZM38.25,113.84c1.05-.84,1.37-2.37,1.37-3.63.03-4.4-.25-8.66-.86-13-.34-2.4-1.06-4.71-2.33-6.69-1.56-2.42-4.26-3.2-6.96-2.19-6.51,2.44-12.06,8.19-9.14,15.04,2.35,5.51,7.37,9.79,13.43,11.13,1.49.33,3.29.3,4.49-.66Z"/>
</svg>