<?xml version="1.0" encoding="UTF-8"?>
<svg id="Ebene_1" xmlns="http://www.w3.org/2000/svg" version="1.1" viewBox="0 0 719.8 262.33">
  <!-- Generator: Adobe Illustrator 30.0.0, SVG Export Plug-In . SVG Version: 2.1.1 Build 123)  -->
  <defs>
    <style>
      .st0 {
        fill: #8f92a0;
      }
    </style>
  </defs>
  <path class="st0" d="M.26,208.5l18.4-3.29V34.43L0,30.59v-4.12h45.57v76.59c11.81-13.18,24.72-23.06,42.84-23.06,25.53,0,37.62,13.46,37.62,44.75v80.44l18.4,3.29v4.4h-62.06v-4.4l17.03-3.29v-85.94c0-13.46-3.84-26.09-21.97-26.09-13.72,0-23.88,8.25-31.84,16.19v95.81l17.31,3.29v4.4H.3v-4.4l-.04.04Z"/>
  <path class="st0" d="M129.1,242.83c0-8.78,6.59-13.72,14.28-13.72s13.18,4.4,13.18,12.35c0,4.94-3.03,10.16-9.06,13.44,2.19,1.1,4.94,1.93,8.78,1.93,17.31,0,23.88-24.16,30.21-42.84l-50.53-122.18-15.1-3.84v-4.4h62.59v4.4l-19.22,3.84,35.41,87.31,29.93-87.31-17.57-3.84v-4.4h39.53v4.4c-9.06,2.19-14.82,7.41-20.03,22.25l-37.06,103.24c-10.44,28.84-18.4,48.87-40.91,48.87-14.28,0-24.44-8.25-24.44-19.5h-.02Z"/>
  <path class="st0" d="M235.56,257.93l18.4-3.29V83.59h20.89v15.37c5.78-5.75,19.78-18.94,35.97-18.94,34.59,0,52.72,26.91,52.72,67.53s-27.46,68.09-62.32,68.09c-10.72,0-21.15-4.4-26.09-6.03v45.03l20.31,3.29v4.4h-59.89v-4.4ZM336.08,157.15c0-34.87-9.88-64.78-35.41-64.78-9.62,0-18.94,7.13-25.53,13.18v88.96c5.5,5.5,15.93,13.72,30.75,13.72,20.59,0,30.21-22.5,30.21-51.06l-.02-.02Z"/>
  <path class="st0" d="M361.93,208.5l18.4-3.29V34.43l-18.66-3.84v-4.12h45.57v76.59c11.81-13.18,24.72-23.06,42.84-23.06,25.53,0,37.62,13.46,37.62,44.75v80.44l18.4,3.29v4.4h-62.06v-4.4l17.03-3.29v-85.94c0-13.46-3.84-26.09-21.97-26.09-13.72,0-23.88,8.25-31.84,16.19v95.81l17.31,3.29v4.4h-62.59v-4.4l-.04.04Z"/>
  <path class="st0" d="M501.06,148.11c0-41.19,25.53-68.09,61.78-68.09s61.5,26.63,61.5,67.81-25.25,68.37-61.78,68.37-61.5-27.46-61.5-68.09ZM595.49,148.37c0-33.5-8.5-62.32-32.94-62.32s-32.68,28.84-32.68,62.06,8.5,62.06,32.68,62.06,32.94-28.82,32.94-61.78v-.02Z"/>
  <path class="st0" d="M621.24,208.5l18.66-3.29v-113.4l-18.66-3.84v-4.4h44.19v20.87c12.35-15.93,25.53-24.16,37.34-24.16s17.03,7.41,17.03,16.75c0,8.5-5.5,14.82-14.56,14.82-8.5,0-15.1-5.5-15.1-14.28,0-1.65.56-3.56,1.1-4.66-6.59,2.19-18.66,8.78-24.72,16.75v95.56l20.87,3.29v4.4h-66.16s0-4.4,0-4.4Z"/>
</svg>